{
    "asset" : {
        "generator" : "Khronos glTF Blender I/O v1.5.17",
        "version" : "2.0"
    },
    "scene" : 0,
    "scenes" : [
        {
            "name" : "Scene",
            "nodes" : [
                21,
                22,
                23
            ]
        }
    ],
    "nodes" : [
        {
            "mesh" : 0,
            "name" : "Base_lambert1_0"
        },
        {
            "children" : [
                0
            ],
            "name" : "Base"
        },
        {
            "mesh" : 1,
            "name" : "ParticleAttachment1_lambert1_0"
        },
        {
            "children" : [
                2
            ],
            "name" : "ParticleAttachment1"
        },
        {
            "mesh" : 2,
            "name" : "ParticleAttachment2_lambert1_0"
        },
        {
            "children" : [
                4
            ],
            "name" : "ParticleAttachment2"
        },
        {
            "children" : [
                1,
                3,
                5
            ],
            "name" : "Main"
        },
        {
            "name" : "Main_End_JNT_04",
            "rotation" : [
                1.416922135177856e-14,
                -5.836314898033379e-08,
                2.011657045386528e-07,
                1
            ],
            "scale" : [
                0.9999998807907104,
                0.9999998807907104,
                1
            ],
            "translation" : [
                1.5616416931152344e-05,
                22.107053756713867,
                -2.8587542489494355e-12
            ]
        },
        {
            "children" : [
                7
            ],
            "name" : "Main_JNT_03",
            "rotation" : [
                4.9994188344726354e-08,
                3.823748428999352e-08,
                0.8020804524421692,
                0.5972160696983337
            ],
            "translation" : [
                7.549344900326105e-06,
                35.27901840209961,
                -6.856389913288685e-13
            ]
        },
        {
            "children" : [
                8
            ],
            "name" : "Lower_JNT_02",
            "rotation" : [
                -7.694539760905172e-08,
                8.78645067814432e-08,
                -0.3495346009731293,
                0.9369235038757324
            ],
            "scale" : [
                0.9999999403953552,
                0.9999999403953552,
                1
            ],
            "translation" : [
                -1.9202548173780087e-07,
                8.067122459411621,
                -1.831964620150131e-13
            ]
        },
        {
            "children" : [
                9
            ],
            "name" : "Base_JNT_01",
            "rotation" : [
                -2.796266987727667e-16,
                5.073828468611338e-16,
                -2.109466379351943e-09,
                1
            ],
            "translation" : [
                2.616491550332112e-13,
                11.30004596710205,
                -2.5091443120694957e-15
            ]
        },
        {
            "children" : [
                10
            ],
            "name" : "Root_JNT_00",
            "rotation" : [
                0.5000000596046448,
                0.4999999403953552,
                0.5000000596046448,
                0.5
            ],
            "translation" : [
                -2.524354896707238e-29,
                0,
                7.958299761412491e-07
            ]
        },
        {
            "children" : [
                11
            ],
            "name" : "_rootJoint",
            "rotation" : [
                -0.7071068286895752,
                0,
                0,
                0.7071068286895752
            ]
        },
        {
            "mesh" : 3,
            "name" : "Main_lambert1_0",
            "skin" : 0
        },
        {
            "name" : "Node_6"
        },
        {
            "name" : "Node_8"
        },
        {
            "mesh" : 4,
            "name" : "TurretBase_lambert1_0",
            "skin" : 0
        },
        {
            "children" : [
                6,
                13,
                14,
                15,
                16,
                12
            ],
            "name" : "Armature"
        },
        {
            "children" : [
                17
            ],
            "name" : "RootNode"
        },
        {
            "children" : [
                18
            ],
            "name" : "dc4b7c435eb640699ab8bec8e38b174f.fbx",
            "rotation" : [
                0.7071068286895752,
                0,
                0,
                0.7071068286895752
            ]
        },
        {
            "children" : [
                19
            ],
            "name" : "RootNode (model correction matrix)"
        },
        {
            "children" : [
                20
            ],
            "name" : "RootNode (gltf orientation matrix)",
            "rotation" : [
                -0.7071068286895752,
                0,
                0,
                0.7071068286895752
            ],
            "translation" : [
                0,
                79.82867431640625,
                0
            ]
        },
        {
            "name" : "Light",
            "rotation" : [
                0.16907575726509094,
                0.7558803558349609,
                -0.27217137813568115,
                0.570947527885437
            ],
            "translation" : [
                4.076245307922363,
                85.73253631591797,
                -1.0054539442062378
            ]
        },
        {
            "name" : "Camera",
            "rotation" : [
                0.483536034822464,
                0.33687159419059753,
                -0.20870360732078552,
                0.7804827094078064
            ],
            "translation" : [
                7.358891487121582,
                84.78697967529297,
                6.925790786743164
            ]
        }
    ],
    "materials" : [
        {
            "alphaMode" : "BLEND",
            "emissiveFactor" : [
                1,
                1,
                1
            ],
            "emissiveTexture" : {
                "index" : 0
            },
            "name" : "lambert1",
            "normalTexture" : {
                "index" : 1
            },
            "occlusionTexture" : {
                "index" : 2
            },
            "pbrMetallicRoughness" : {
                "baseColorTexture" : {
                    "index" : 3
                },
                "metallicRoughnessTexture" : {
                    "index" : 2
                }
            }
        }
    ],
    "meshes" : [
        {
            "name" : "Base_lambert1_0",
            "primitives" : [
                {
                    "attributes" : {
                        "POSITION" : 0,
                        "NORMAL" : 1,
                        "TEXCOORD_0" : 2
                    },
                    "indices" : 3,
                    "material" : 0
                }
            ]
        },
        {
            "name" : "ParticleAttachment1_lambert1_0",
            "primitives" : [
                {
                    "attributes" : {
                        "POSITION" : 4,
                        "NORMAL" : 5,
                        "TEXCOORD_0" : 6
                    },
                    "indices" : 7,
                    "material" : 0
                }
            ]
        },
        {
            "name" : "ParticleAttachment2_lambert1_0",
            "primitives" : [
                {
                    "attributes" : {
                        "POSITION" : 8,
                        "NORMAL" : 9,
                        "TEXCOORD_0" : 10
                    },
                    "indices" : 7,
                    "material" : 0
                }
            ]
        },
        {
            "name" : "Main_lambert1_0",
            "primitives" : [
                {
                    "attributes" : {
                        "POSITION" : 11,
                        "NORMAL" : 12,
                        "TEXCOORD_0" : 13,
                        "JOINTS_0" : 14,
                        "WEIGHTS_0" : 15
                    },
                    "indices" : 16,
                    "material" : 0
                }
            ]
        },
        {
            "name" : "TurretBase_lambert1_0",
            "primitives" : [
                {
                    "attributes" : {
                        "POSITION" : 18,
                        "NORMAL" : 19,
                        "TEXCOORD_0" : 20,
                        "JOINTS_0" : 21,
                        "WEIGHTS_0" : 22
                    },
                    "indices" : 23,
                    "material" : 0
                }
            ]
        }
    ],
    "textures" : [
        {
            "sampler" : 0,
            "source" : 0
        },
        {
            "sampler" : 0,
            "source" : 1
        },
        {
            "sampler" : 0,
            "source" : 2
        },
        {
            "sampler" : 0,
            "source" : 3
        }
    ],
    "images" : [
        {
            "bufferView" : 4,
            "mimeType" : "image/png",
            "name" : "lambert1_emissive"
        },
        {
            "bufferView" : 5,
            "mimeType" : "image/png",
            "name" : "lambert1_normal"
        },
        {
            "bufferView" : 6,
            "mimeType" : "image/png",
            "name" : "lambert1_metallicRoughness"
        },
        {
            "bufferView" : 7,
            "mimeType" : "image/png",
            "name" : "lambert1_baseColor"
        }
    ],
    "skins" : [
        {
            "inverseBindMatrices" : 17,
            "joints" : [
                12,
                11,
                10,
                9,
                8,
                7
            ],
            "name" : "Armature"
        }
    ],
    "accessors" : [
        {
            "bufferView" : 0,
            "componentType" : 5126,
            "count" : 585,
            "max" : [
                39.635250091552734,
                5.607190132141113,
                39.635257720947266
            ],
            "min" : [
                -39.635250091552734,
                -78.89087677001953,
                -39.63524627685547
            ],
            "type" : "VEC3"
        },
        {
            "bufferView" : 1,
            "componentType" : 5126,
            "count" : 585,
            "type" : "VEC3"
        },
        {
            "bufferView" : 2,
            "componentType" : 5126,
            "count" : 585,
            "type" : "VEC2"
        },
        {
            "bufferView" : 3,
            "componentType" : 5123,
            "count" : 720,
            "type" : "SCALAR"
        },
        {
            "bufferView" : 8,
            "componentType" : 5126,
            "count" : 24,
            "max" : [
                17.078489303588867,
                53.034786224365234,
                0.050000011920928955
            ],
            "min" : [
                16.978490829467773,
                52.93478775024414,
                -0.050000011920928955
            ],
            "type" : "VEC3"
        },
        {
            "bufferView" : 9,
            "componentType" : 5126,
            "count" : 24,
            "type" : "VEC3"
        },
        {
            "bufferView" : 10,
            "componentType" : 5126,
            "count" : 24,
            "type" : "VEC2"
        },
        {
            "bufferView" : 11,
            "componentType" : 5123,
            "count" : 36,
            "type" : "SCALAR"
        },
        {
            "bufferView" : 12,
            "componentType" : 5126,
            "count" : 24,
            "max" : [
                -16.978490829467773,
                53.034786224365234,
                0.050000011920928955
            ],
            "min" : [
                -17.078493118286133,
                52.93478775024414,
                -0.050000011920928955
            ],
            "type" : "VEC3"
        },
        {
            "bufferView" : 13,
            "componentType" : 5126,
            "count" : 24,
            "type" : "VEC3"
        },
        {
            "bufferView" : 14,
            "componentType" : 5126,
            "count" : 24,
            "type" : "VEC2"
        },
        {
            "bufferView" : 15,
            "componentType" : 5126,
            "count" : 2698,
            "max" : [
                22.50188446044922,
                143.6909942626953,
                34.14736557006836
            ],
            "min" : [
                -22.50189781188965,
                91.12871551513672,
                -48.22468185424805
            ],
            "type" : "VEC3"
        },
        {
            "bufferView" : 16,
            "componentType" : 5126,
            "count" : 2698,
            "type" : "VEC3"
        },
        {
            "bufferView" : 17,
            "componentType" : 5126,
            "count" : 2698,
            "type" : "VEC2"
        },
        {
            "bufferView" : 18,
            "componentType" : 5121,
            "count" : 2698,
            "type" : "VEC4"
        },
        {
            "bufferView" : 19,
            "componentType" : 5126,
            "count" : 2698,
            "type" : "VEC4"
        },
        {
            "bufferView" : 20,
            "componentType" : 5123,
            "count" : 3378,
            "type" : "SCALAR"
        },
        {
            "bufferView" : 21,
            "componentType" : 5126,
            "count" : 6,
            "type" : "MAT4"
        },
        {
            "bufferView" : 22,
            "componentType" : 5126,
            "count" : 109,
            "max" : [
                17.833709716796875,
                91.66288757324219,
                17.833721160888672
            ],
            "min" : [
                -17.833724975585938,
                79.82867431640625,
                -17.833724975585938
            ],
            "type" : "VEC3"
        },
        {
            "bufferView" : 23,
            "componentType" : 5126,
            "count" : 109,
            "type" : "VEC3"
        },
        {
            "bufferView" : 24,
            "componentType" : 5126,
            "count" : 109,
            "type" : "VEC2"
        },
        {
            "bufferView" : 25,
            "componentType" : 5121,
            "count" : 109,
            "type" : "VEC4"
        },
        {
            "bufferView" : 26,
            "componentType" : 5126,
            "count" : 109,
            "type" : "VEC4"
        },
        {
            "bufferView" : 27,
            "componentType" : 5123,
            "count" : 216,
            "type" : "SCALAR"
        }
    ],
    "bufferViews" : [
        {
            "buffer" : 0,
            "byteLength" : 7020,
            "byteOffset" : 0
        },
        {
            "buffer" : 0,
            "byteLength" : 7020,
            "byteOffset" : 7020
        },
        {
            "buffer" : 0,
            "byteLength" : 4680,
            "byteOffset" : 14040
        },
        {
            "buffer" : 0,
            "byteLength" : 1440,
            "byteOffset" : 18720
        },
        {
            "buffer" : 0,
            "byteLength" : 30012,
            "byteOffset" : 20160
        },
        {
            "buffer" : 0,
            "byteLength" : 654818,
            "byteOffset" : 50172
        },
        {
            "buffer" : 0,
            "byteLength" : 574407,
            "byteOffset" : 704992
        },
        {
            "buffer" : 0,
            "byteLength" : 541325,
            "byteOffset" : 1279400
        },
        {
            "buffer" : 0,
            "byteLength" : 288,
            "byteOffset" : 1820728
        },
        {
            "buffer" : 0,
            "byteLength" : 288,
            "byteOffset" : 1821016
        },
        {
            "buffer" : 0,
            "byteLength" : 192,
            "byteOffset" : 1821304
        },
        {
            "buffer" : 0,
            "byteLength" : 72,
            "byteOffset" : 1821496
        },
        {
            "buffer" : 0,
            "byteLength" : 288,
            "byteOffset" : 1821568
        },
        {
            "buffer" : 0,
            "byteLength" : 288,
            "byteOffset" : 1821856
        },
        {
            "buffer" : 0,
            "byteLength" : 192,
            "byteOffset" : 1822144
        },
        {
            "buffer" : 0,
            "byteLength" : 32376,
            "byteOffset" : 1822336
        },
        {
            "buffer" : 0,
            "byteLength" : 32376,
            "byteOffset" : 1854712
        },
        {
            "buffer" : 0,
            "byteLength" : 21584,
            "byteOffset" : 1887088
        },
        {
            "buffer" : 0,
            "byteLength" : 10792,
            "byteOffset" : 1908672
        },
        {
            "buffer" : 0,
            "byteLength" : 43168,
            "byteOffset" : 1919464
        },
        {
            "buffer" : 0,
            "byteLength" : 6756,
            "byteOffset" : 1962632
        },
        {
            "buffer" : 0,
            "byteLength" : 384,
            "byteOffset" : 1969388
        },
        {
            "buffer" : 0,
            "byteLength" : 1308,
            "byteOffset" : 1969772
        },
        {
            "buffer" : 0,
            "byteLength" : 1308,
            "byteOffset" : 1971080
        },
        {
            "buffer" : 0,
            "byteLength" : 872,
            "byteOffset" : 1972388
        },
        {
            "buffer" : 0,
            "byteLength" : 436,
            "byteOffset" : 1973260
        },
        {
            "buffer" : 0,
            "byteLength" : 1744,
            "byteOffset" : 1973696
        },
        {
            "buffer" : 0,
            "byteLength" : 432,
            "byteOffset" : 1975440
        }
    ],
    "samplers" : [
        {
            "magFilter" : 9729,
            "minFilter" : 9987
        }
    ],
    "buffers" : [
        {
            "byteLength" : 1975872,
            "uri" : "data:application/octet-stream;base64,"
        }
    ]
}
