{
    "asset" : {
        "generator" : "Khronos glTF Blender I/O v1.5.17",
        "version" : "2.0"
    },
    "scene" : 0,
    "scenes" : [
        {
            "name" : "Scene",
            "nodes" : [
                2,
                6,
                7,
                8,
                9,
                10
            ]
        }
    ],
    "nodes" : [
        {
            "name" : "floor_4x4_free.obj.cleaner.materialmerger.gles"
        },
        {
            "children" : [
                0
            ],
            "name" : "RootNode (model correction matrix)",
            "rotation" : [
                -0.7132487297058105,
                0.0656370297074318,
                0.01810424216091633,
                0.6975960731506348
            ],
            "translation" : [
                2.016843557357788,
                7.099056720733643,
                5.021860599517822
            ]
        },
        {
            "children" : [
                1
            ],
            "name" : "RootNode (gltf orientation matrix)",
            "rotation" : [
                -0.7071068286895752,
                0,
                0,
                0.7071068286895752
            ],
            "translation" : [
                -3.1830811500549316,
                -4.3377861976623535,
                1.5964560508728027
            ]
        },
        {
            "mesh" : 0,
            "name" : "Mesh_0.001",
            "translation" : [
                0.3190593719482422,
                6.845211982727051,
                -12.190805435180664
            ]
        },
        {
            "children" : [
                3
            ],
            "name" : "floor_4x4_free.obj.cleaner.materialmerger.gles.001"
        },
        {
            "children" : [
                4
            ],
            "name" : "RootNode (model correction matrix).001",
            "rotation" : [
                -0.7132487297058105,
                0.0656370297074318,
                0.01810424216091633,
                0.6975960731506348
            ],
            "translation" : [
                1.2971879243850708,
                12.306158065795898,
                6.488973617553711
            ]
        },
        {
            "children" : [
                5
            ],
            "name" : "RootNode (gltf orientation matrix).001",
            "rotation" : [
                -0.7071068286895752,
                0,
                0,
                0.7071068286895752
            ],
            "translation" : [
                0,
                1,
                0
            ]
        },
        {
            "name" : "Light.001",
            "rotation" : [
                0.16907575726509094,
                0.7558803558349609,
                -0.27217137813568115,
                0.570947527885437
            ],
            "translation" : [
                4.076245307922363,
                5.903861999511719,
                -1.0054539442062378
            ]
        },
        {
            "name" : "Camera.001",
            "rotation" : [
                0.483536034822464,
                0.33687159419059753,
                -0.20870360732078552,
                0.7804827094078064
            ],
            "translation" : [
                7.358891487121582,
                4.958309173583984,
                6.925790786743164
            ]
        },
        {
            "name" : "Light",
            "rotation" : [
                0.16907575726509094,
                0.7558803558349609,
                -0.27217137813568115,
                0.570947527885437
            ],
            "translation" : [
                1.6128196716308594,
                0.09896337985992432,
                5.7981038093566895
            ]
        },
        {
            "name" : "Camera",
            "rotation" : [
                0.483536034822464,
                0.33687159419059753,
                -0.20870360732078552,
                0.7804827094078064
            ],
            "translation" : [
                4.17581033706665,
                0.6205229759216309,
                8.522247314453125
            ]
        }
    ],
    "materials" : [
        {
            "doubleSided" : true,
            "name" : "floor_4x4_free.001",
            "pbrMetallicRoughness" : {
                "baseColorTexture" : {
                    "index" : 0
                },
                "metallicFactor" : 0
            }
        }
    ],
    "meshes" : [
        {
            "name" : "Mesh_0.001",
            "primitives" : [
                {
                    "attributes" : {
                        "POSITION" : 0,
                        "NORMAL" : 1,
                        "TEXCOORD_0" : 2
                    },
                    "indices" : 3,
                    "material" : 0
                }
            ]
        }
    ],
    "textures" : [
        {
            "sampler" : 0,
            "source" : 0
        }
    ],
    "images" : [
        {
            "bufferView" : 4,
            "mimeType" : "image/jpeg",
            "name" : "floor_4x4_free_baseColor"
        }
    ],
    "accessors" : [
        {
            "bufferView" : 0,
            "componentType" : 5126,
            "count" : 6412,
            "max" : [
                12.345900535583496,
                1.7779483795166016,
                12.227444648742676
            ],
            "min" : [
                -12.17010498046875,
                -1.7172927856445312,
                -12.255156517028809
            ],
            "type" : "VEC3"
        },
        {
            "bufferView" : 1,
            "componentType" : 5126,
            "count" : 6412,
            "type" : "VEC3"
        },
        {
            "bufferView" : 2,
            "componentType" : 5126,
            "count" : 6412,
            "type" : "VEC2"
        },
        {
            "bufferView" : 3,
            "componentType" : 5123,
            "count" : 29997,
            "type" : "SCALAR"
        }
    ],
    "bufferViews" : [
        {
            "buffer" : 0,
            "byteLength" : 76944,
            "byteOffset" : 0
        },
        {
            "buffer" : 0,
            "byteLength" : 76944,
            "byteOffset" : 76944
        },
        {
            "buffer" : 0,
            "byteLength" : 51296,
            "byteOffset" : 153888
        },
        {
            "buffer" : 0,
            "byteLength" : 59994,
            "byteOffset" : 205184
        },
        {
            "buffer" : 0,
            "byteLength" : 460048,
            "byteOffset" : 265180
        }
    ],
    "samplers" : [
        {
            "magFilter" : 9729,
            "minFilter" : 9987
        }
    ],
    "buffers" : [
        {
            "byteLength" : 725228,
            "uri" : "data:application/octet-stream;base64,"
        }
    ]
}
