{
  "accessors": [
    {
      "bufferView": 2,
      "componentType": 5126,
      "count": 6411,
      "max": [
        17.556680679321289,
        10.646053314208984,
        9.3497467041015625
      ],
      "min": [
        -6.9593257904052734,
        7.1508121490478516,
        -15.132854461669922
      ],
      "type": "VEC3"
    },
    {
      "bufferView": 2,
      "byteOffset": 76932,
      "componentType": 5126,
      "count": 6411,
      "max": [
        0.98505944013595581,
        0.99811559915542603,
        0.97728216648101807
      ],
      "min": [
        -0.99478483200073242,
        -0.9999956488609314,
        -0.99796700477600098
      ],
      "type": "VEC3"
    },
    {
      "bufferView": 1,
      "componentType": 5126,
      "count": 6411,
      "max": [
        0.99998897314071655,
        0.99476200342178345
      ],
      "min": [
        3.7999998312443495e-05,
        9.0000003183376975e-06
      ],
      "type": "VEC2"
    },
    {
      "bufferView": 0,
      "componentType": 5125,
      "count": 29997,
      "max": [
        6410
      ],
      "min": [
        0
      ],
      "type": "SCALAR"
    }
  ],
  "asset": {
    "extras": {
      "author": "Forest Run Forever (https://sketchfab.com/2w)",
      "license": "CC-BY-4.0 (http://creativecommons.org/licenses/by/4.0/)",
      "source": "https://sketchfab.com/3d-models/floor-concrete-da0bf33a0e2c4a1da947e490b80422c1",
      "title": "Floor Concrete"
    },
    "generator": "Sketchfab-9.3.0",
    "version": "2.0"
  },
  "bufferViews": [
    {
      "buffer": 0,
      "byteLength": 119988,
      "byteOffset": 0,
      "name": "floatBufferViews",
      "target": 34963
    },
    {
      "buffer": 0,
      "byteLength": 51288,
      "byteOffset": 119988,
      "byteStride": 8,
      "name": "floatBufferViews",
      "target": 34962
    },
    {
      "buffer": 0,
      "byteLength": 153864,
      "byteOffset": 171276,
      "byteStride": 12,
      "name": "floatBufferViews",
      "target": 34962
    }
  ],
  "buffers": [
    {
      "byteLength": 325140,
      "uri": "scene.bin"
    }
  ],
  "images": [
    {
      "uri": "textures/floor_4x4_free_baseColor.jpeg"
    }
  ],
  "materials": [
    {
      "doubleSided": true,
      "emissiveFactor": [
        0,
        0,
        0
      ],
      "name": "floor_4x4_free",
      "pbrMetallicRoughness": {
        "baseColorFactor": [
          1,
          1,
          1,
          1
        ],
        "baseColorTexture": {
          "index": 0,
          "texCoord": 0
        },
        "metallicFactor": 0,
        "roughnessFactor": 1
      }
    }
  ],
  "meshes": [
    {
      "primitives": [
        {
          "attributes": {
            "NORMAL": 1,
            "POSITION": 0,
            "TEXCOORD_0": 2
          },
          "indices": 3,
          "material": 0,
          "mode": 4
        }
      ]
    }
  ],
  "nodes": [
    {
      "children": [
        1
      ],
      "name": "RootNode (gltf orientation matrix)",
      "rotation": [
        -0.70710678118654746,
        -0,
        -0,
        0.70710678118654757
      ]
    },
    {
      "children": [
        2
      ],
      "matrix": [
        0.99072802066802979,
        -0.068372167646884918,
        -0.11740192770957947,
        0,
        -0.11888995766639709,
        -0.018103053793311119,
        -0.99274241924285889,
        0,
        0.065750613808631897,
        0.99749565124511719,
        -0.026063967496156693,
        0,
        1.2971879243850708,
        12.306158065795898,
        6.4889736175537109,
        1
      ],
      "name": "RootNode (model correction matrix)"
    },
    {
      "children": [
        3
      ],
      "name": "floor_4x4_free.obj.cleaner.materialmerger.gles"
    },
    {
      "mesh": 0,
      "name": ""
    }
  ],
  "samplers": [
    {
      "magFilter": 9729,
      "minFilter": 9987,
      "wrapS": 10497,
      "wrapT": 10497
    }
  ],
  "scene": 0,
  "scenes": [
    {
      "name": "OSG_Scene",
      "nodes": [
        0
      ]
    }
  ],
  "textures": [
    {
      "sampler": 0,
      "source": 0
    }
  ]
}

