{
    "asset" : {
        "generator" : "Khronos glTF Blender I/O v1.5.17",
        "version" : "2.0"
    },
    "scene" : 0,
    "scenes" : [
        {
            "name" : "Scene",
            "nodes" : [
                7,
                8,
                9
            ]
        }
    ],
    "nodes" : [
        {
            "mesh" : 0,
            "name" : "Pond_Texture-base-gloss-jpg_0"
        },
        {
            "mesh" : 1,
            "name" : "Pond_Texture-base_0"
        },
        {
            "children" : [
                0,
                1
            ],
            "name" : "Node_5",
            "translation" : [
                0.23138427734375,
                0.009597757831215858,
                0
            ]
        },
        {
            "children" : [
                2
            ],
            "name" : "Pond",
            "rotation" : [
                -0.70710688829422,
                0,
                0,
                0.7071066498756409
            ]
        },
        {
            "children" : [
                3
            ],
            "name" : "RootNode"
        },
        {
            "children" : [
                4
            ],
            "name" : "dcbdc9e65d2c4ffab9dcaf15d236a25c.fbx",
            "rotation" : [
                0.7071068286895752,
                0,
                0,
                0.7071068286895752
            ]
        },
        {
            "children" : [
                5
            ],
            "name" : "RootNode (model correction matrix)"
        },
        {
            "children" : [
                6
            ],
            "name" : "RootNode (gltf orientation matrix)",
            "rotation" : [
                -0.7071068286895752,
                0,
                0,
                0.7071068286895752
            ],
            "translation" : [
                0,
                0.3297969102859497,
                0
            ]
        },
        {
            "name" : "Light",
            "rotation" : [
                0.16907575726509094,
                0.7558803558349609,
                -0.27217137813568115,
                0.570947527885437
            ],
            "translation" : [
                4.076245307922363,
                6.233658790588379,
                -1.0054539442062378
            ]
        },
        {
            "name" : "Camera",
            "rotation" : [
                0.483536034822464,
                0.33687159419059753,
                -0.20870360732078552,
                0.7804827094078064
            ],
            "translation" : [
                7.358891487121582,
                4.958309173583984,
                6.925790786743164
            ]
        }
    ],
    "materials" : [
        {
            "alphaMode" : "BLEND",
            "name" : "Texture-base-gloss-jpg",
            "pbrMetallicRoughness" : {
                "baseColorTexture" : {
                    "index" : 0
                },
                "metallicFactor" : 0,
                "roughnessFactor" : 0
            }
        },
        {
            "alphaMode" : "BLEND",
            "name" : "Texture-base",
            "pbrMetallicRoughness" : {
                "baseColorTexture" : {
                    "index" : 1
                },
                "metallicFactor" : 0
            }
        }
    ],
    "meshes" : [
        {
            "name" : "Pond_Texture-base-gloss-jpg_0",
            "primitives" : [
                {
                    "attributes" : {
                        "POSITION" : 0,
                        "NORMAL" : 1,
                        "TEXCOORD_0" : 2
                    },
                    "indices" : 3,
                    "material" : 0
                }
            ]
        },
        {
            "name" : "Pond_Texture-base_0",
            "primitives" : [
                {
                    "attributes" : {
                        "POSITION" : 4,
                        "NORMAL" : 5,
                        "TEXCOORD_0" : 6
                    },
                    "indices" : 7,
                    "material" : 1
                }
            ]
        }
    ],
    "textures" : [
        {
            "sampler" : 0,
            "source" : 0
        },
        {
            "sampler" : 0,
            "source" : 1
        }
    ],
    "images" : [
        {
            "bufferView" : 4,
            "mimeType" : "image/jpeg",
            "name" : "Texture-base-gloss-jpg_baseColor"
        },
        {
            "bufferView" : 9,
            "mimeType" : "image/jpeg",
            "name" : "Texture-base_baseColor"
        }
    ],
    "accessors" : [
        {
            "bufferView" : 0,
            "componentType" : 5126,
            "count" : 78,
            "max" : [
                1.1534738540649414,
                2.001375198364258,
                -0.19025056064128876
            ],
            "min" : [
                -1.6454930305480957,
                -1.8310672044754028,
                -0.19025808572769165
            ],
            "type" : "VEC3"
        },
        {
            "bufferView" : 1,
            "componentType" : 5126,
            "count" : 78,
            "type" : "VEC3"
        },
        {
            "bufferView" : 2,
            "componentType" : 5126,
            "count" : 78,
            "type" : "VEC2"
        },
        {
            "bufferView" : 3,
            "componentType" : 5123,
            "count" : 78,
            "type" : "SCALAR"
        },
        {
            "bufferView" : 5,
            "componentType" : 5126,
            "count" : 1100,
            "max" : [
                1.64194917678833,
                2.716679811477661,
                0.33125317096710205
            ],
            "min" : [
                -2.1047067642211914,
                -2.735877513885498,
                -0.33125150203704834
            ],
            "type" : "VEC3"
        },
        {
            "bufferView" : 6,
            "componentType" : 5126,
            "count" : 1100,
            "type" : "VEC3"
        },
        {
            "bufferView" : 7,
            "componentType" : 5126,
            "count" : 1100,
            "type" : "VEC2"
        },
        {
            "bufferView" : 8,
            "componentType" : 5123,
            "count" : 1266,
            "type" : "SCALAR"
        }
    ],
    "bufferViews" : [
        {
            "buffer" : 0,
            "byteLength" : 936,
            "byteOffset" : 0
        },
        {
            "buffer" : 0,
            "byteLength" : 936,
            "byteOffset" : 936
        },
        {
            "buffer" : 0,
            "byteLength" : 624,
            "byteOffset" : 1872
        },
        {
            "buffer" : 0,
            "byteLength" : 156,
            "byteOffset" : 2496
        },
        {
            "buffer" : 0,
            "byteLength" : 210159,
            "byteOffset" : 2652
        },
        {
            "buffer" : 0,
            "byteLength" : 13200,
            "byteOffset" : 212812
        },
        {
            "buffer" : 0,
            "byteLength" : 13200,
            "byteOffset" : 226012
        },
        {
            "buffer" : 0,
            "byteLength" : 8800,
            "byteOffset" : 239212
        },
        {
            "buffer" : 0,
            "byteLength" : 2532,
            "byteOffset" : 248012
        },
        {
            "buffer" : 0,
            "byteLength" : 210159,
            "byteOffset" : 250544
        }
    ],
    "samplers" : [
        {
            "magFilter" : 9729,
            "minFilter" : 9987
        }
    ],
    "buffers" : [
        {
            "byteLength" : 460704,
            "uri" : "data:application/octet-stream;base64,"
        }
    ]
}
