{
  "accessors": [
    {
      "bufferView": 1,
      "componentType": 5126,
      "count": 19908,
      "max": [
        408.0,
        216.0,
        12.0
      ],
      "min": [
        -212.0,
        -407.0,
        0.0
      ],
      "type": "VEC3"
    },
    {
      "bufferView": 1,
      "byteOffset": 238896,
      "componentType": 5126,
      "count": 19908,
      "max": [
        1.0,
        1.0,
        1.0
      ],
      "min": [
        -1.0,
        -1.0,
        -1.0
      ],
      "type": "VEC3"
    },
    {
      "bufferView": 0,
      "componentType": 5125,
      "count": 70962,
      "type": "SCALAR"
    },
    {
      "bufferView": 1,
      "byteOffset": 477792,
      "componentType": 5126,
      "count": 38578,
      "max": [
        407.3999938964844,
        214.39999389648438,
        16.0
      ],
      "min": [
        -213.39999389648438,
        -406.3999938964844,
        0.0
      ],
      "type": "VEC3"
    },
    {
      "bufferView": 1,
      "byteOffset": 940728,
      "componentType": 5126,
      "count": 38578,
      "max": [
        1.0,
        1.0,
        1.0
      ],
      "min": [
        -1.0,
        -1.0,
        -1.0
      ],
      "type": "VEC3"
    },
    {
      "bufferView": 0,
      "byteOffset": 283848,
      "componentType": 5125,
      "count": 80838,
      "type": "SCALAR"
    }
  ],
  "asset": {
    "extras": {
      "author": "PatelDev (https://sketchfab.com/PatelDev)",
      "license": "CC-BY-4.0 (http://creativecommons.org/licenses/by/4.0/)",
      "source": "https://sketchfab.com/3d-models/low-poly-lava-60c48d80ddd5481ebfeae5ffe8c19483",
      "title": "Low Poly Lava"
    },
    "generator": "Sketchfab-10.79.1",
    "version": "2.0"
  },
  "bufferViews": [
    {
      "buffer": 0,
      "byteLength": 607200,
      "name": "floatBufferViews",
      "target": 34963
    },
    {
      "buffer": 0,
      "byteLength": 1403664,
      "byteOffset": 607200,
      "byteStride": 12,
      "name": "floatBufferViews",
      "target": 34962
    }
  ],
  "buffers": [
    {
      "byteLength": 2010864,
      "uri": "scene.bin"
    }
  ],
  "materials": [
    {
      "doubleSided": true,
      "name": "color_16741120",
      "pbrMetallicRoughness": {
        "baseColorFactor": [
          1.0,
          0.08563217995806953,
          0.0,
          1.0
        ],
        "metallicFactor": 0.0
      }
    },
    {
      "doubleSided": true,
      "name": "color_4523012",
      "pbrMetallicRoughness": {
        "baseColorFactor": [
          0.08805174037017907,
          0.003264642320599167,
          0.003264642320599167,
          1.0
        ],
        "metallicFactor": 0.0
      }
    }
  ],
  "meshes": [
    {
      "name": "Object_0",
      "primitives": [
        {
          "attributes": {
            "NORMAL": 1,
            "POSITION": 0
          },
          "indices": 2,
          "material": 0,
          "mode": 4
        }
      ]
    },
    {
      "name": "Object_1",
      "primitives": [
        {
          "attributes": {
            "NORMAL": 4,
            "POSITION": 3
          },
          "indices": 5,
          "material": 1,
          "mode": 4
        }
      ]
    }
  ],
  "nodes": [
    {
      "children": [
        1
      ],
      "matrix": [
        1.0,
        0.0,
        0.0,
        0.0,
        0.0,
        2.220446049250313e-16,
        -1.0,
        0.0,
        0.0,
        1.0,
        2.220446049250313e-16,
        0.0,
        0.0,
        0.0,
        0.0,
        1.0
      ],
      "name": "Sketchfab_model"
    },
    {
      "children": [
        2
      ],
      "name": "root"
    },
    {
      "children": [
        3
      ],
      "matrix": [
        1.0,
        0.0,
        0.0,
        0.0,
        0.0,
        2.220446049250313e-16,
        1.0,
        0.0,
        0.0,
        -1.0,
        2.220446049250313e-16,
        0.0,
        0.0,
        0.0,
        0.0,
        1.0
      ],
      "name": "GLTF_SceneRootNode"
    },
    {
      "children": [
        4,
        6
      ],
      "matrix": [
        1.0,
        0.0,
        -0.0,
        0.0,
        -0.0,
        -1.685873969314855e-07,
        -0.9999999999999858,
        0.0,
        0.0,
        0.9999999999999858,
        -1.685873969314855e-07,
        0.0,
        0.0,
        -103.5000228881836,
        -87.5000228881836,
        1.0
      ],
      "name": "Just Lava_4"
    },
    {
      "children": [
        5
      ],
      "matrix": [
        0.4761046767234802,
        0.0,
        0.0,
        0.0,
        0.0,
        0.4761046767234802,
        0.0,
        0.0,
        0.0,
        0.0,
        0.4761046767234802,
        0.0,
        0.0,
        0.0,
        0.0,
        1.0
      ],
      "name": "Object_3_2"
    },
    {
      "mesh": 0,
      "name": "Object_5"
    },
    {
      "children": [
        7
      ],
      "matrix": [
        0.4761046767234802,
        0.0,
        0.0,
        0.0,
        0.0,
        0.4761046767234802,
        0.0,
        0.0,
        0.0,
        0.0,
        0.4761046767234802,
        0.0,
        0.0,
        0.0,
        0.0,
        1.0
      ],
      "name": "Object_4_3"
    },
    {
      "mesh": 1,
      "name": "Object_7"
    }
  ],
  "scene": 0,
  "scenes": [
    {
      "name": "Sketchfab_Scene",
      "nodes": [
        0
      ]
    }
  ]
}
