{
    "asset" : {
        "generator" : "Khronos glTF Blender I/O v1.5.17",
        "version" : "2.0"
    },
    "scene" : 0,
    "scenes" : [
        {
            "name" : "Scene",
            "nodes" : [
                7,
                8,
                9
            ]
        }
    ],
    "nodes" : [
        {
            "mesh" : 0,
            "name" : "Object_5",
            "translation" : [
                0,
                -183.78321838378906,
                217.3892364501953
            ]
        },
        {
            "children" : [
                0
            ],
            "name" : "Object_3_2",
            "scale" : [
                0.4761046767234802,
                0.4761046767234802,
                0.4761046767234802
            ]
        },
        {
            "mesh" : 1,
            "name" : "Object_7",
            "translation" : [
                0,
                -183.78321838378906,
                217.3892364501953
            ]
        },
        {
            "children" : [
                2
            ],
            "name" : "Object_4_3",
            "scale" : [
                0.4761046767234802,
                0.4761046767234802,
                0.4761046767234802
            ]
        },
        {
            "children" : [
                1,
                3
            ],
            "name" : "Just Lava_4",
            "rotation" : [
                -0.7071068286895752,
                0,
                0,
                0.7071067094802856
            ],
            "translation" : [
                0,
                -103.5000228881836,
                -87.5000228881836
            ]
        },
        {
            "children" : [
                4
            ],
            "name" : "GLTF_SceneRootNode",
            "rotation" : [
                0.7071068286895752,
                0,
                0,
                0.7071068286895752
            ]
        },
        {
            "children" : [
                5
            ],
            "name" : "root"
        },
        {
            "children" : [
                6
            ],
            "name" : "Sketchfab_model",
            "rotation" : [
                -0.7071068286895752,
                0,
                0,
                0.7071068286895752
            ]
        },
        {
            "name" : "Light",
            "rotation" : [
                0.16907575726509094,
                0.7558803558349609,
                -0.27217137813568115,
                0.570947527885437
            ],
            "translation" : [
                4.076245307922363,
                5.903861999511719,
                -1.0054539442062378
            ]
        },
        {
            "name" : "Camera",
            "rotation" : [
                0.483536034822464,
                0.33687159419059753,
                -0.20870360732078552,
                0.7804827094078064
            ],
            "translation" : [
                7.358891487121582,
                4.958309173583984,
                6.925790786743164
            ]
        }
    ],
    "materials" : [
        {
            "doubleSided" : true,
            "name" : "color_16741120",
            "pbrMetallicRoughness" : {
                "baseColorFactor" : [
                    1,
                    0.08563218265771866,
                    0,
                    1
                ],
                "metallicFactor" : 0
            }
        },
        {
            "doubleSided" : true,
            "name" : "color_4523012",
            "pbrMetallicRoughness" : {
                "baseColorFactor" : [
                    0.08805174380540848,
                    0.00326464232057333,
                    0.00326464232057333,
                    1
                ],
                "metallicFactor" : 0
            }
        }
    ],
    "meshes" : [
        {
            "name" : "Object_0",
            "primitives" : [
                {
                    "attributes" : {
                        "POSITION" : 0,
                        "NORMAL" : 1
                    },
                    "indices" : 2,
                    "material" : 0
                }
            ]
        },
        {
            "name" : "Object_1",
            "primitives" : [
                {
                    "attributes" : {
                        "POSITION" : 3,
                        "NORMAL" : 4
                    },
                    "indices" : 5,
                    "material" : 1
                }
            ]
        }
    ],
    "accessors" : [
        {
            "bufferView" : 0,
            "componentType" : 5126,
            "count" : 50848,
            "max" : [
                305.79864501953125,
                316.0523376464844,
                6.0484161376953125
            ],
            "min" : [
                -314.20135498046875,
                -306.9476318359375,
                -5.9515838623046875
            ],
            "type" : "VEC3"
        },
        {
            "bufferView" : 1,
            "componentType" : 5126,
            "count" : 50848,
            "type" : "VEC3"
        },
        {
            "bufferView" : 2,
            "componentType" : 5123,
            "count" : 70962,
            "type" : "SCALAR"
        },
        {
            "bufferView" : 3,
            "componentType" : 5126,
            "count" : 62319,
            "max" : [
                308.2487487792969,
                312.5047302246094,
                5.6912841796875
            ],
            "min" : [
                -312.5512390136719,
                -308.2952880859375,
                -10.3087158203125
            ],
            "type" : "VEC3"
        },
        {
            "bufferView" : 4,
            "componentType" : 5126,
            "count" : 62319,
            "type" : "VEC3"
        },
        {
            "bufferView" : 5,
            "componentType" : 5123,
            "count" : 80838,
            "type" : "SCALAR"
        }
    ],
    "bufferViews" : [
        {
            "buffer" : 0,
            "byteLength" : 610176,
            "byteOffset" : 0
        },
        {
            "buffer" : 0,
            "byteLength" : 610176,
            "byteOffset" : 610176
        },
        {
            "buffer" : 0,
            "byteLength" : 141924,
            "byteOffset" : 1220352
        },
        {
            "buffer" : 0,
            "byteLength" : 747828,
            "byteOffset" : 1362276
        },
        {
            "buffer" : 0,
            "byteLength" : 747828,
            "byteOffset" : 2110104
        },
        {
            "buffer" : 0,
            "byteLength" : 161676,
            "byteOffset" : 2857932
        }
    ],
    "buffers" : [
        {
            "byteLength" : 3019608,
            "uri" : "data:application/octet-stream;base64,"
        }
    ]
}
