{
  "accessors": [
    {
      "bufferView": 2,
      "componentType": 5126,
      "count": 5470,
      "max": [
        16.10174560546875,
        20.101747512817383,
        10.922191619873047
      ],
      "min": [
        -16.10174560546875,
        -18,
        -0.077825784683227539
      ],
      "type": "VEC3"
    },
    {
      "bufferView": 2,
      "byteOffset": 65640,
      "componentType": 5126,
      "count": 5470,
      "max": [
        1,
        1,
        1
      ],
      "min": [
        -1,
        -1,
        -1
      ],
      "type": "VEC3"
    },
    {
      "bufferView": 1,
      "componentType": 5126,
      "count": 5470,
      "max": [
        0.97266554832458496,
        0.86236315965652466
      ],
      "min": [
        0.030035972595214844,
        0.013242721557617188
      ],
      "type": "VEC2"
    },
    {
      "bufferView": 0,
      "componentType": 5125,
      "count": 8322,
      "max": [
        5469
      ],
      "min": [
        0
      ],
      "type": "SCALAR"
    },
    {
      "bufferView": 2,
      "byteOffset": 131280,
      "componentType": 5126,
      "count": 576,
      "max": [
        10.284292221069336,
        14.270637512207031,
        5.2955336570739746
      ],
      "min": [
        -10.284292221069336,
        -6.2842888832092285,
        4.2723746299743652
      ],
      "type": "VEC3"
    },
    {
      "bufferView": 2,
      "byteOffset": 138192,
      "componentType": 5126,
      "count": 576,
      "max": [
        0.96667963266372681,
        0.96667659282684326,
        0.72161865234375
      ],
      "min": [
        -0.96667951345443726,
        -0.86797970533370972,
        -0.72161948680877686
      ],
      "type": "VEC3"
    },
    {
      "bufferView": 1,
      "byteOffset": 43760,
      "componentType": 5126,
      "count": 576,
      "max": [
        0.85690414905548096,
        0.85130453109741211
      ],
      "min": [
        0.46788173913955688,
        0.81373703479766846
      ],
      "type": "VEC2"
    },
    {
      "bufferView": 0,
      "byteOffset": 33288,
      "componentType": 5125,
      "count": 864,
      "max": [
        575
      ],
      "min": [
        0
      ],
      "type": "SCALAR"
    },
    {
      "bufferView": 2,
      "byteOffset": 145104,
      "componentType": 5126,
      "count": 2752,
      "max": [
        12,
        -3.5,
        18.194732666015625
      ],
      "min": [
        -12,
        -20.001714706420898,
        -0.00012978911399841309
      ],
      "type": "VEC3"
    },
    {
      "bufferView": 2,
      "byteOffset": 178128,
      "componentType": 5126,
      "count": 2752,
      "max": [
        1,
        1,
        1
      ],
      "min": [
        -1,
        -1,
        -1
      ],
      "type": "VEC3"
    },
    {
      "bufferView": 1,
      "byteOffset": 48368,
      "componentType": 5126,
      "count": 2752,
      "max": [
        0.97814059257507324,
        0.86169999837875366
      ],
      "min": [
        0.39049315452575684,
        0.01619189977645874
      ],
      "type": "VEC2"
    },
    {
      "bufferView": 0,
      "byteOffset": 36744,
      "componentType": 5125,
      "count": 4308,
      "max": [
        2751
      ],
      "min": [
        0
      ],
      "type": "SCALAR"
    },
    {
      "bufferView": 2,
      "byteOffset": 211152,
      "componentType": 5126,
      "count": 2139,
      "max": [
        10.089442253112793,
        -1.5,
        14.5
      ],
      "min": [
        -10.089442253112793,
        -20.001714706420898,
        0
      ],
      "type": "VEC3"
    },
    {
      "bufferView": 2,
      "byteOffset": 236820,
      "componentType": 5126,
      "count": 2139,
      "max": [
        1,
        1,
        1
      ],
      "min": [
        -1,
        -1,
        -1
      ],
      "type": "VEC3"
    },
    {
      "bufferView": 1,
      "byteOffset": 70384,
      "componentType": 5126,
      "count": 2139,
      "max": [
        0.96075260639190674,
        0.86250001192092896
      ],
      "min": [
        0.032473444938659668,
        0.092192649841308594
      ],
      "type": "VEC2"
    },
    {
      "bufferView": 0,
      "byteOffset": 53976,
      "componentType": 5125,
      "count": 3504,
      "max": [
        2138
      ],
      "min": [
        0
      ],
      "type": "SCALAR"
    },
    {
      "bufferView": 2,
      "byteOffset": 262488,
      "componentType": 5126,
      "count": 840,
      "max": [
        16.441993713378906,
        20.441991806030273,
        5.8108105659484863
      ],
      "min": [
        -16.441993713378906,
        3.1260945796966553,
        0.056803703308105469
      ],
      "type": "VEC3"
    },
    {
      "bufferView": 2,
      "byteOffset": 272568,
      "componentType": 5126,
      "count": 840,
      "max": [
        0.99853986501693726,
        0.99853974580764771,
        0.96259403228759766
      ],
      "min": [
        -0.99853986501693726,
        -0.99853974580764771,
        -0.96259397268295288
      ],
      "type": "VEC3"
    },
    {
      "bufferView": 1,
      "byteOffset": 87496,
      "componentType": 5126,
      "count": 840,
      "max": [
        0.48070675134658813,
        0.85049998760223389
      ],
      "min": [
        0.410888671875,
        0.77771377563476562
      ],
      "type": "VEC2"
    },
    {
      "bufferView": 0,
      "byteOffset": 67992,
      "componentType": 5125,
      "count": 1260,
      "max": [
        839
      ],
      "min": [
        0
      ],
      "type": "SCALAR"
    },
    {
      "bufferView": 2,
      "byteOffset": 282648,
      "componentType": 5126,
      "count": 140,
      "max": [
        4.4911608695983887,
        -10.999998092651367,
        3
      ],
      "min": [
        -4.4911608695983887,
        -10.999998092651367,
        1
      ],
      "type": "VEC3"
    },
    {
      "bufferView": 2,
      "byteOffset": 284328,
      "componentType": 5126,
      "count": 140,
      "max": [
        0,
        -1,
        1.1733664905477781e-05
      ],
      "min": [
        0,
        -1,
        -8.7806338342488743e-06
      ],
      "type": "VEC3"
    },
    {
      "bufferView": 1,
      "byteOffset": 94216,
      "componentType": 5126,
      "count": 140,
      "max": [
        0.98623472452163696,
        0.85663336515426636
      ],
      "min": [
        0.48099935054779053,
        0.040987491607666016
      ],
      "type": "VEC2"
    },
    {
      "bufferView": 0,
      "byteOffset": 73032,
      "componentType": 5125,
      "count": 240,
      "max": [
        139
      ],
      "min": [
        0
      ],
      "type": "SCALAR"
    },
    {
      "bufferView": 2,
      "byteOffset": 286008,
      "componentType": 5126,
      "count": 1091,
      "max": [
        3.8827261924743652,
        3.8827242851257324,
        1.0000009536743164
      ],
      "min": [
        -3.8827271461486816,
        -3.8827204704284668,
        0
      ],
      "type": "VEC3"
    },
    {
      "bufferView": 2,
      "byteOffset": 299100,
      "componentType": 5126,
      "count": 1091,
      "max": [
        0.99145090579986572,
        0.99145102500915527,
        1
      ],
      "min": [
        -0.9914514422416687,
        -0.99145042896270752,
        -1
      ],
      "type": "VEC3"
    },
    {
      "bufferView": 1,
      "byteOffset": 95336,
      "componentType": 5126,
      "count": 1091,
      "max": [
        0.785888671875,
        0.78757929801940918
      ],
      "min": [
        0.40943104028701782,
        0.78463655710220337
      ],
      "type": "VEC2"
    },
    {
      "bufferView": 0,
      "byteOffset": 73992,
      "componentType": 5125,
      "count": 1584,
      "max": [
        1090
      ],
      "min": [
        0
      ],
      "type": "SCALAR"
    }
  ],
  "asset": {
    "extras": {
      "author": "MRowa (https://sketchfab.com/MRowa)",
      "license": "CC-BY-SA-4.0 (http://creativecommons.org/licenses/by-sa/4.0/)",
      "source": "https://sketchfab.com/3d-models/geothermal-power-station-4a433c81a37e467799dd8b6de50e90c9",
      "title": "Geothermal Power Station"
    },
    "generator": "Sketchfab-8.78.0",
    "version": "2.0"
  },
  "bufferViews": [
    {
      "buffer": 0,
      "byteLength": 80328,
      "byteOffset": 0,
      "name": "floatBufferViews",
      "target": 34963
    },
    {
      "buffer": 0,
      "byteLength": 104064,
      "byteOffset": 80328,
      "byteStride": 8,
      "name": "floatBufferViews",
      "target": 34962
    },
    {
      "buffer": 0,
      "byteLength": 312192,
      "byteOffset": 184392,
      "byteStride": 12,
      "name": "floatBufferViews",
      "target": 34962
    }
  ],
  "buffers": [
    {
      "byteLength": 496584,
      "uri": "scene.bin"
    }
  ],
  "images": [
    {
      "uri": "textures/Placeable_baseColor.png"
    },
    {
      "uri": "textures/Placeable_metallicRoughness.png"
    },
    {
      "uri": "textures/Placeable_emissive.png"
    }
  ],
  "materials": [
    {
      "doubleSided": true,
      "emissiveFactor": [
        1,
        1,
        1
      ],
      "emissiveTexture": {
        "index": 2,
        "texCoord": 0
      },
      "name": "Placeable",
      "pbrMetallicRoughness": {
        "baseColorFactor": [
          1,
          1,
          1,
          1
        ],
        "baseColorTexture": {
          "index": 0,
          "texCoord": 0
        },
        "metallicFactor": 1,
        "metallicRoughnessTexture": {
          "index": 1,
          "texCoord": 0
        },
        "roughnessFactor": 0.75
      }
    }
  ],
  "meshes": [
    {
      "name": "GeothermalPowerStationUnder_Foundation_Placeable_0",
      "primitives": [
        {
          "attributes": {
            "NORMAL": 1,
            "POSITION": 0,
            "TEXCOORD_0": 2
          },
          "indices": 3,
          "material": 0,
          "mode": 4
        }
      ]
    },
    {
      "name": "GeothermalPowerStationUnder_FoundationFence_Placeable_0",
      "primitives": [
        {
          "attributes": {
            "NORMAL": 5,
            "POSITION": 4,
            "TEXCOORD_0": 6
          },
          "indices": 7,
          "material": 0,
          "mode": 4
        }
      ]
    },
    {
      "name": "GeothermalPowerStationUnder_Body_Placeable_0",
      "primitives": [
        {
          "attributes": {
            "NORMAL": 9,
            "POSITION": 8,
            "TEXCOORD_0": 10
          },
          "indices": 11,
          "material": 0,
          "mode": 4
        }
      ]
    },
    {
      "name": "GeothermalPowerStationUnder_UpperBody_Placeable_0",
      "primitives": [
        {
          "attributes": {
            "NORMAL": 13,
            "POSITION": 12,
            "TEXCOORD_0": 14
          },
          "indices": 15,
          "material": 0,
          "mode": 4
        }
      ]
    },
    {
      "name": "GeothermalPowerStationUnder_FoundationParts_Placeable_0",
      "primitives": [
        {
          "attributes": {
            "NORMAL": 17,
            "POSITION": 16,
            "TEXCOORD_0": 18
          },
          "indices": 19,
          "material": 0,
          "mode": 4
        }
      ]
    },
    {
      "name": "GeothermalPowerStationUnder_Door_Placeable_0",
      "primitives": [
        {
          "attributes": {
            "NORMAL": 21,
            "POSITION": 20,
            "TEXCOORD_0": 22
          },
          "indices": 23,
          "material": 0,
          "mode": 4
        }
      ]
    },
    {
      "name": "GeothermalPowerStationUnder_Propeller_Placeable_0",
      "primitives": [
        {
          "attributes": {
            "NORMAL": 25,
            "POSITION": 24,
            "TEXCOORD_0": 26
          },
          "indices": 27,
          "material": 0,
          "mode": 4
        }
      ]
    }
  ],
  "nodes": [
    {
      "children": [
        1
      ],
      "name": "RootNode (gltf orientation matrix)",
      "rotation": [
        -0.70710678118654746,
        -0,
        -0,
        0.70710678118654757
      ]
    },
    {
      "children": [
        2
      ],
      "name": "RootNode (model correction matrix)"
    },
    {
      "children": [
        3
      ],
      "matrix": [
        1,
        0,
        0,
        0,
        0,
        0,
        1,
        0,
        0,
        -1,
        0,
        0,
        0,
        0,
        0,
        1
      ],
      "name": "91408e98cda84852845c7e3ef04dbc17.fbx"
    },
    {
      "children": [
        4
      ],
      "name": "RootNode"
    },
    {
      "children": [
        5,
        7,
        9,
        11,
        13,
        15,
        17
      ],
      "matrix": [
        100,
        0,
        0,
        0,
        0,
        -1.6292067939183141e-05,
        -99.999999999998678,
        0,
        0,
        99.999999999998678,
        -1.6292067939183141e-05,
        0,
        0,
        0,
        0,
        1
      ],
      "name": "GeothermalPowerStationUnder"
    },
    {
      "children": [
        6
      ],
      "matrix": [
        1,
        0,
        0,
        0,
        0,
        1,
        -2.646977960169688e-23,
        0,
        0,
        2.646977960169688e-23,
        1,
        0,
        0,
        0,
        0,
        1
      ],
      "name": "GeothermalPowerStationUnder_Foundation"
    },
    {
      "mesh": 0,
      "name": "GeothermalPowerStationUnder_Foundation_Placeable_0"
    },
    {
      "children": [
        8
      ],
      "matrix": [
        1,
        0,
        0,
        0,
        0,
        1,
        -2.646977960169688e-23,
        0,
        0,
        2.646977960169688e-23,
        1,
        0,
        0,
        0,
        0,
        1
      ],
      "name": "GeothermalPowerStationUnder_FoundationFence"
    },
    {
      "mesh": 1,
      "name": "GeothermalPowerStationUnder_FoundationFence_Placeable_0"
    },
    {
      "children": [
        10
      ],
      "matrix": [
        1,
        0,
        0,
        0,
        0,
        1,
        -2.646977960169688e-23,
        0,
        0,
        2.646977960169688e-23,
        1,
        0,
        0,
        0,
        0,
        1
      ],
      "name": "GeothermalPowerStationUnder_Body"
    },
    {
      "mesh": 2,
      "name": "GeothermalPowerStationUnder_Body_Placeable_0"
    },
    {
      "children": [
        12
      ],
      "matrix": [
        1,
        0,
        0,
        0,
        0,
        1,
        -2.646977960169688e-23,
        0,
        0,
        2.646977960169688e-23,
        1,
        0,
        0,
        0,
        0,
        1
      ],
      "name": "GeothermalPowerStationUnder_UpperBody"
    },
    {
      "mesh": 3,
      "name": "GeothermalPowerStationUnder_UpperBody_Placeable_0"
    },
    {
      "children": [
        14
      ],
      "matrix": [
        1,
        0,
        0,
        0,
        0,
        1,
        -2.646977960169688e-23,
        0,
        0,
        2.646977960169688e-23,
        1,
        0,
        0,
        0,
        0,
        1
      ],
      "name": "GeothermalPowerStationUnder_FoundationParts"
    },
    {
      "mesh": 4,
      "name": "GeothermalPowerStationUnder_FoundationParts_Placeable_0"
    },
    {
      "children": [
        16
      ],
      "matrix": [
        1,
        0,
        0,
        0,
        0,
        1,
        -2.646977960169688e-23,
        0,
        0,
        2.646977960169688e-23,
        1,
        0,
        0,
        -5.5,
        0,
        1
      ],
      "name": "GeothermalPowerStationUnder_Door"
    },
    {
      "mesh": 5,
      "name": "GeothermalPowerStationUnder_Door_Placeable_0"
    },
    {
      "children": [
        18
      ],
      "matrix": [
        1,
        0,
        0,
        0,
        0,
        1,
        -2.646977960169688e-23,
        0,
        0,
        2.646977960169688e-23,
        1,
        0,
        0,
        4.0000019073486328,
        8.9221744537353516,
        1
      ],
      "name": "GeothermalPowerStationUnder_Propeller"
    },
    {
      "mesh": 6,
      "name": "GeothermalPowerStationUnder_Propeller_Placeable_0"
    }
  ],
  "samplers": [
    {
      "magFilter": 9728,
      "minFilter": 9728,
      "wrapS": 10497,
      "wrapT": 10497
    }
  ],
  "scene": 0,
  "scenes": [
    {
      "name": "OSG_Scene",
      "nodes": [
        0
      ]
    }
  ],
  "textures": [
    {
      "sampler": 0,
      "source": 0
    },
    {
      "sampler": 0,
      "source": 1
    },
    {
      "sampler": 0,
      "source": 2
    }
  ]
}

