{
    "asset" : {
        "generator" : "Khronos glTF Blender I/O v1.5.17",
        "version" : "2.0"
    },
    "scene" : 0,
    "scenes" : [
        {
            "name" : "Scene",
            "nodes" : [
                18,
                19,
                20
            ]
        }
    ],
    "nodes" : [
        {
            "mesh" : 0,
            "name" : "GeothermalPowerStationUnder_Body_Placeable_0"
        },
        {
            "children" : [
                0
            ],
            "name" : "GeothermalPowerStationUnder_Body"
        },
        {
            "mesh" : 1,
            "name" : "GeothermalPowerStationUnder_Door_Placeable_0"
        },
        {
            "children" : [
                2
            ],
            "name" : "GeothermalPowerStationUnder_Door",
            "translation" : [
                0,
                -5.5,
                0
            ]
        },
        {
            "mesh" : 2,
            "name" : "GeothermalPowerStationUnder_Foundation_Placeable_0"
        },
        {
            "children" : [
                4
            ],
            "name" : "GeothermalPowerStationUnder_Foundation"
        },
        {
            "mesh" : 3,
            "name" : "GeothermalPowerStationUnder_FoundationFence_Placeable_0"
        },
        {
            "children" : [
                6
            ],
            "name" : "GeothermalPowerStationUnder_FoundationFence"
        },
        {
            "mesh" : 4,
            "name" : "GeothermalPowerStationUnder_FoundationParts_Placeable_0"
        },
        {
            "children" : [
                8
            ],
            "name" : "GeothermalPowerStationUnder_FoundationParts"
        },
        {
            "mesh" : 5,
            "name" : "GeothermalPowerStationUnder_Propeller_Placeable_0"
        },
        {
            "children" : [
                10
            ],
            "name" : "GeothermalPowerStationUnder_Propeller",
            "translation" : [
                0,
                4.000001907348633,
                8.922174453735352
            ]
        },
        {
            "mesh" : 6,
            "name" : "GeothermalPowerStationUnder_UpperBody_Placeable_0"
        },
        {
            "children" : [
                12
            ],
            "name" : "GeothermalPowerStationUnder_UpperBody"
        },
        {
            "children" : [
                1,
                3,
                5,
                7,
                9,
                11,
                13
            ],
            "name" : "GeothermalPowerStationUnder",
            "rotation" : [
                -0.7071068286895752,
                0,
                0,
                0.7071067094802856
            ],
            "scale" : [
                100,
                100,
                100
            ]
        },
        {
            "children" : [
                14
            ],
            "name" : "RootNode"
        },
        {
            "children" : [
                15
            ],
            "name" : "91408e98cda84852845c7e3ef04dbc17.fbx",
            "rotation" : [
                0.7071068286895752,
                0,
                0,
                0.7071068286895752
            ]
        },
        {
            "children" : [
                16
            ],
            "name" : "RootNode (model correction matrix)"
        },
        {
            "children" : [
                17
            ],
            "name" : "RootNode (gltf orientation matrix)",
            "rotation" : [
                -0.7071068286895752,
                0,
                0,
                0.7071068286895752
            ]
        },
        {
            "name" : "Light",
            "rotation" : [
                0.16907575726509094,
                0.7558803558349609,
                -0.27217137813568115,
                0.570947527885437
            ],
            "translation" : [
                4.076245307922363,
                5.903861999511719,
                -1.0054539442062378
            ]
        },
        {
            "name" : "Camera",
            "rotation" : [
                0.483536034822464,
                0.33687159419059753,
                -0.20870360732078552,
                0.7804827094078064
            ],
            "translation" : [
                7.358891487121582,
                4.958309173583984,
                6.925790786743164
            ]
        }
    ],
    "materials" : [
        {
            "alphaMode" : "BLEND",
            "emissiveFactor" : [
                1,
                1,
                1
            ],
            "emissiveTexture" : {
                "index" : 0
            },
            "name" : "Placeable",
            "pbrMetallicRoughness" : {
                "baseColorTexture" : {
                    "index" : 1
                },
                "metallicRoughnessTexture" : {
                    "index" : 2
                },
                "roughnessFactor" : 0.75
            }
        }
    ],
    "meshes" : [
        {
            "name" : "GeothermalPowerStationUnder_Body_Placeable_0",
            "primitives" : [
                {
                    "attributes" : {
                        "POSITION" : 0,
                        "NORMAL" : 1,
                        "TEXCOORD_0" : 2
                    },
                    "indices" : 3,
                    "material" : 0
                }
            ]
        },
        {
            "name" : "GeothermalPowerStationUnder_Door_Placeable_0",
            "primitives" : [
                {
                    "attributes" : {
                        "POSITION" : 4,
                        "NORMAL" : 5,
                        "TEXCOORD_0" : 6
                    },
                    "indices" : 7,
                    "material" : 0
                }
            ]
        },
        {
            "name" : "GeothermalPowerStationUnder_Foundation_Placeable_0",
            "primitives" : [
                {
                    "attributes" : {
                        "POSITION" : 8,
                        "NORMAL" : 9,
                        "TEXCOORD_0" : 10
                    },
                    "indices" : 11,
                    "material" : 0
                }
            ]
        },
        {
            "name" : "GeothermalPowerStationUnder_FoundationFence_Placeable_0",
            "primitives" : [
                {
                    "attributes" : {
                        "POSITION" : 12,
                        "NORMAL" : 13,
                        "TEXCOORD_0" : 14
                    },
                    "indices" : 15,
                    "material" : 0
                }
            ]
        },
        {
            "name" : "GeothermalPowerStationUnder_FoundationParts_Placeable_0",
            "primitives" : [
                {
                    "attributes" : {
                        "POSITION" : 16,
                        "NORMAL" : 17,
                        "TEXCOORD_0" : 18
                    },
                    "indices" : 19,
                    "material" : 0
                }
            ]
        },
        {
            "name" : "GeothermalPowerStationUnder_Propeller_Placeable_0",
            "primitives" : [
                {
                    "attributes" : {
                        "POSITION" : 20,
                        "NORMAL" : 21,
                        "TEXCOORD_0" : 22
                    },
                    "indices" : 23,
                    "material" : 0
                }
            ]
        },
        {
            "name" : "GeothermalPowerStationUnder_UpperBody_Placeable_0",
            "primitives" : [
                {
                    "attributes" : {
                        "POSITION" : 24,
                        "NORMAL" : 25,
                        "TEXCOORD_0" : 26
                    },
                    "indices" : 27,
                    "material" : 0
                }
            ]
        }
    ],
    "textures" : [
        {
            "sampler" : 0,
            "source" : 0
        },
        {
            "sampler" : 0,
            "source" : 1
        },
        {
            "sampler" : 0,
            "source" : 2
        }
    ],
    "images" : [
        {
            "bufferView" : 4,
            "mimeType" : "image/png",
            "name" : "Placeable_emissive"
        },
        {
            "bufferView" : 5,
            "mimeType" : "image/png",
            "name" : "Placeable_baseColor"
        },
        {
            "bufferView" : 6,
            "mimeType" : "image/png",
            "name" : "Placeable_metallicRoughness"
        }
    ],
    "accessors" : [
        {
            "bufferView" : 0,
            "componentType" : 5126,
            "count" : 3659,
            "max" : [
                12,
                -3.5,
                18.194732666015625
            ],
            "min" : [
                -12,
                -20.0017147064209,
                -0.00012978911399841309
            ],
            "type" : "VEC3"
        },
        {
            "bufferView" : 1,
            "componentType" : 5126,
            "count" : 3659,
            "type" : "VEC3"
        },
        {
            "bufferView" : 2,
            "componentType" : 5126,
            "count" : 3659,
            "type" : "VEC2"
        },
        {
            "bufferView" : 3,
            "componentType" : 5123,
            "count" : 4308,
            "type" : "SCALAR"
        },
        {
            "bufferView" : 7,
            "componentType" : 5126,
            "count" : 198,
            "max" : [
                4.491160869598389,
                -10.999998092651367,
                3
            ],
            "min" : [
                -4.491160869598389,
                -10.999998092651367,
                1
            ],
            "type" : "VEC3"
        },
        {
            "bufferView" : 8,
            "componentType" : 5126,
            "count" : 198,
            "type" : "VEC3"
        },
        {
            "bufferView" : 9,
            "componentType" : 5126,
            "count" : 198,
            "type" : "VEC2"
        },
        {
            "bufferView" : 10,
            "componentType" : 5123,
            "count" : 240,
            "type" : "SCALAR"
        },
        {
            "bufferView" : 11,
            "componentType" : 5126,
            "count" : 7938,
            "max" : [
                16.10174560546875,
                20.101747512817383,
                10.922191619873047
            ],
            "min" : [
                -16.10174560546875,
                -18,
                -0.07782578468322754
            ],
            "type" : "VEC3"
        },
        {
            "bufferView" : 12,
            "componentType" : 5126,
            "count" : 7938,
            "type" : "VEC3"
        },
        {
            "bufferView" : 13,
            "componentType" : 5126,
            "count" : 7938,
            "type" : "VEC2"
        },
        {
            "bufferView" : 14,
            "componentType" : 5123,
            "count" : 8322,
            "type" : "SCALAR"
        },
        {
            "bufferView" : 15,
            "componentType" : 5126,
            "count" : 810,
            "max" : [
                10.284292221069336,
                14.270637512207031,
                5.295533657073975
            ],
            "min" : [
                -10.284292221069336,
                -6.2842888832092285,
                4.272374629974365
            ],
            "type" : "VEC3"
        },
        {
            "bufferView" : 16,
            "componentType" : 5126,
            "count" : 810,
            "type" : "VEC3"
        },
        {
            "bufferView" : 17,
            "componentType" : 5126,
            "count" : 810,
            "type" : "VEC2"
        },
        {
            "bufferView" : 18,
            "componentType" : 5123,
            "count" : 864,
            "type" : "SCALAR"
        },
        {
            "bufferView" : 19,
            "componentType" : 5126,
            "count" : 840,
            "max" : [
                16.441993713378906,
                20.441991806030273,
                5.810810565948486
            ],
            "min" : [
                -16.441993713378906,
                3.1260945796966553,
                0.05680370330810547
            ],
            "type" : "VEC3"
        },
        {
            "bufferView" : 20,
            "componentType" : 5126,
            "count" : 840,
            "type" : "VEC3"
        },
        {
            "bufferView" : 21,
            "componentType" : 5126,
            "count" : 840,
            "type" : "VEC2"
        },
        {
            "bufferView" : 22,
            "componentType" : 5123,
            "count" : 1260,
            "type" : "SCALAR"
        },
        {
            "bufferView" : 23,
            "componentType" : 5126,
            "count" : 1331,
            "max" : [
                3.8827261924743652,
                3.8827242851257324,
                1.0000009536743164
            ],
            "min" : [
                -3.8827271461486816,
                -3.882720470428467,
                0
            ],
            "type" : "VEC3"
        },
        {
            "bufferView" : 24,
            "componentType" : 5126,
            "count" : 1331,
            "type" : "VEC3"
        },
        {
            "bufferView" : 25,
            "componentType" : 5126,
            "count" : 1331,
            "type" : "VEC2"
        },
        {
            "bufferView" : 26,
            "componentType" : 5123,
            "count" : 1584,
            "type" : "SCALAR"
        },
        {
            "bufferView" : 27,
            "componentType" : 5126,
            "count" : 2797,
            "max" : [
                10.089442253112793,
                -1.5,
                14.5
            ],
            "min" : [
                -10.089442253112793,
                -20.0017147064209,
                0
            ],
            "type" : "VEC3"
        },
        {
            "bufferView" : 28,
            "componentType" : 5126,
            "count" : 2797,
            "type" : "VEC3"
        },
        {
            "bufferView" : 29,
            "componentType" : 5126,
            "count" : 2797,
            "type" : "VEC2"
        },
        {
            "bufferView" : 30,
            "componentType" : 5123,
            "count" : 3504,
            "type" : "SCALAR"
        }
    ],
    "bufferViews" : [
        {
            "buffer" : 0,
            "byteLength" : 43908,
            "byteOffset" : 0
        },
        {
            "buffer" : 0,
            "byteLength" : 43908,
            "byteOffset" : 43908
        },
        {
            "buffer" : 0,
            "byteLength" : 29272,
            "byteOffset" : 87816
        },
        {
            "buffer" : 0,
            "byteLength" : 8616,
            "byteOffset" : 117088
        },
        {
            "buffer" : 0,
            "byteLength" : 107,
            "byteOffset" : 125704
        },
        {
            "buffer" : 0,
            "byteLength" : 171,
            "byteOffset" : 125812
        },
        {
            "buffer" : 0,
            "byteLength" : 120,
            "byteOffset" : 125984
        },
        {
            "buffer" : 0,
            "byteLength" : 2376,
            "byteOffset" : 126104
        },
        {
            "buffer" : 0,
            "byteLength" : 2376,
            "byteOffset" : 128480
        },
        {
            "buffer" : 0,
            "byteLength" : 1584,
            "byteOffset" : 130856
        },
        {
            "buffer" : 0,
            "byteLength" : 480,
            "byteOffset" : 132440
        },
        {
            "buffer" : 0,
            "byteLength" : 95256,
            "byteOffset" : 132920
        },
        {
            "buffer" : 0,
            "byteLength" : 95256,
            "byteOffset" : 228176
        },
        {
            "buffer" : 0,
            "byteLength" : 63504,
            "byteOffset" : 323432
        },
        {
            "buffer" : 0,
            "byteLength" : 16644,
            "byteOffset" : 386936
        },
        {
            "buffer" : 0,
            "byteLength" : 9720,
            "byteOffset" : 403580
        },
        {
            "buffer" : 0,
            "byteLength" : 9720,
            "byteOffset" : 413300
        },
        {
            "buffer" : 0,
            "byteLength" : 6480,
            "byteOffset" : 423020
        },
        {
            "buffer" : 0,
            "byteLength" : 1728,
            "byteOffset" : 429500
        },
        {
            "buffer" : 0,
            "byteLength" : 10080,
            "byteOffset" : 431228
        },
        {
            "buffer" : 0,
            "byteLength" : 10080,
            "byteOffset" : 441308
        },
        {
            "buffer" : 0,
            "byteLength" : 6720,
            "byteOffset" : 451388
        },
        {
            "buffer" : 0,
            "byteLength" : 2520,
            "byteOffset" : 458108
        },
        {
            "buffer" : 0,
            "byteLength" : 15972,
            "byteOffset" : 460628
        },
        {
            "buffer" : 0,
            "byteLength" : 15972,
            "byteOffset" : 476600
        },
        {
            "buffer" : 0,
            "byteLength" : 10648,
            "byteOffset" : 492572
        },
        {
            "buffer" : 0,
            "byteLength" : 3168,
            "byteOffset" : 503220
        },
        {
            "buffer" : 0,
            "byteLength" : 33564,
            "byteOffset" : 506388
        },
        {
            "buffer" : 0,
            "byteLength" : 33564,
            "byteOffset" : 539952
        },
        {
            "buffer" : 0,
            "byteLength" : 22376,
            "byteOffset" : 573516
        },
        {
            "buffer" : 0,
            "byteLength" : 7008,
            "byteOffset" : 595892
        }
    ],
    "samplers" : [
        {
            "magFilter" : 9728,
            "minFilter" : 9984
        }
    ],
    "buffers" : [
        {
            "byteLength" : 602900,
            "uri" : "data:application/octet-stream;base64,"
        }
    ]
}
