{
    "asset" : {
        "generator" : "Khronos glTF Blender I/O v1.5.17",
        "version" : "2.0"
    },
    "scene" : 0,
    "scenes" : [
        {
            "name" : "Scene",
            "nodes" : [
                6,
                7,
                8
            ]
        }
    ],
    "nodes" : [
        {
            "mesh" : 0,
            "name" : "Mesh_0.005"
        },
        {
            "children" : [
                0
            ],
            "name" : "lake.1_1.001"
        },
        {
            "children" : [
                1
            ],
            "name" : "RootNode.0_0.001",
            "scale" : [
                0.009999999776482582,
                0.009999999776482582,
                0.009999999776482582
            ]
        },
        {
            "children" : [
                2
            ],
            "name" : "GLTF_SceneRootNode.001",
            "rotation" : [
                0.7071068286895752,
                0,
                0,
                0.7071068286895752
            ]
        },
        {
            "children" : [
                3
            ],
            "name" : "root.001"
        },
        {
            "children" : [
                4
            ],
            "name" : "RootNode (model correction matrix).001"
        },
        {
            "children" : [
                5
            ],
            "name" : "RootNode (gltf orientation matrix).001",
            "rotation" : [
                -0.7071068286895752,
                0,
                0,
                0.7071068286895752
            ]
        },
        {
            "name" : "Light",
            "rotation" : [
                0.16907575726509094,
                0.7558803558349609,
                -0.27217137813568115,
                0.570947527885437
            ],
            "translation" : [
                4.076245307922363,
                5.903861999511719,
                -1.0054539442062378
            ]
        },
        {
            "name" : "Camera",
            "rotation" : [
                0.483536034822464,
                0.33687159419059753,
                -0.20870360732078552,
                0.7804827094078064
            ],
            "translation" : [
                7.358891487121582,
                4.958309173583984,
                6.925790786743164
            ]
        }
    ],
    "materials" : [
        {
            "alphaMode" : "BLEND",
            "name" : "material_0.002",
            "pbrMetallicRoughness" : {}
        }
    ],
    "meshes" : [
        {
            "name" : "Mesh_0.005",
            "primitives" : [
                {
                    "attributes" : {
                        "POSITION" : 0,
                        "NORMAL" : 1,
                        "TEXCOORD_0" : 2,
                        "TEXCOORD_1" : 3,
                        "TEXCOORD_2" : 4
                    },
                    "indices" : 5,
                    "material" : 0
                }
            ]
        }
    ],
    "accessors" : [
        {
            "bufferView" : 0,
            "componentType" : 5126,
            "count" : 6247,
            "max" : [
                4.374117374420166,
                1.960878610610962,
                6.386113166809082
            ],
            "min" : [
                -4.374117374420166,
                -0.08180232346057892,
                -6.386112689971924
            ],
            "type" : "VEC3"
        },
        {
            "bufferView" : 1,
            "componentType" : 5126,
            "count" : 6247,
            "type" : "VEC3"
        },
        {
            "bufferView" : 2,
            "componentType" : 5126,
            "count" : 6247,
            "type" : "VEC2"
        },
        {
            "bufferView" : 3,
            "componentType" : 5126,
            "count" : 6247,
            "type" : "VEC2"
        },
        {
            "bufferView" : 4,
            "componentType" : 5126,
            "count" : 6247,
            "type" : "VEC2"
        },
        {
            "bufferView" : 5,
            "componentType" : 5123,
            "count" : 6336,
            "type" : "SCALAR"
        }
    ],
    "bufferViews" : [
        {
            "buffer" : 0,
            "byteLength" : 74964,
            "byteOffset" : 0
        },
        {
            "buffer" : 0,
            "byteLength" : 74964,
            "byteOffset" : 74964
        },
        {
            "buffer" : 0,
            "byteLength" : 49976,
            "byteOffset" : 149928
        },
        {
            "buffer" : 0,
            "byteLength" : 49976,
            "byteOffset" : 199904
        },
        {
            "buffer" : 0,
            "byteLength" : 49976,
            "byteOffset" : 249880
        },
        {
            "buffer" : 0,
            "byteLength" : 12672,
            "byteOffset" : 299856
        }
    ],
    "buffers" : [
        {
            "byteLength" : 312528,
            "uri" : "data:application/octet-stream;base64,"
        }
    ]
}
